<?xml version="1.0" encoding="UTF-8" standalone="no"?>
<svg
   xmlns:dc="http://purl.org/dc/elements/1.1/"
   xmlns:cc="http://creativecommons.org/ns#"
   xmlns:rdf="http://www.w3.org/1999/02/22-rdf-syntax-ns#"
   xmlns:svg="http://www.w3.org/2000/svg"
   xmlns="http://www.w3.org/2000/svg"
   viewBox="0 0 517.62665 434.78668"
   height="434.78668"
   width="517.62665"
   xml:space="preserve"
   id="svg2"
   version="1.1"><metadata
     id="metadata8"><rdf:RDF><cc:Work
         rdf:about=""><dc:format>image/svg+xml</dc:format><dc:type
           rdf:resource="http://purl.org/dc/dcmitype/StillImage" /></cc:Work></rdf:RDF></metadata><defs
     id="defs6" /><g
     transform="matrix(1.3333333,0,0,-1.3333333,0,434.78667)"
     id="g10"><g
       transform="scale(0.1)"
       id="g12"><path
         id="path14"
         style="fill:#e82b37;fill-opacity:1;fill-rule:nonzero;stroke:none"
         d="m 3051.6,1559.78 -79.46,1394.1 0.01,0.96 c 1.39,203.52 123.43,276.03 237.2,276.03 47.76,0 96.36,-12.3 140.53,-35.56 145.69,-76.73 259.81,-333.33 259.81,-584.17 V 1364.09 l -558.09,195.69" /><path
         id="path16"
         style="fill:#341513;fill-opacity:1;fill-rule:nonzero;stroke:none"
         d="m 3209.37,3260.87 v -60 l -0.01,60 h -0.03 c -122.28,-0.01 -265.63,-80.12 -267.18,-305.83 l -0.02,-1.91 0.12,-1.91 78.25,-1373.17 2.29,-39.96 37.77,-13.24 499.28,-175.06 79.85,-28 v 84.62 1204.73 c 0,260.99 -121.16,529.25 -275.83,610.72 -48.47,25.52 -101.89,39.01 -154.49,39.01 m -0.03,-60 c 43.27,0.01 87.54,-11.55 126.56,-32.1 134.63,-70.91 243.79,-320.56 243.79,-557.63 V 1406.41 l -499.28,175.06 -78.26,1373.16 c 1.2,176.78 101.15,246.23 207.19,246.24" /><path
         id="path18"
         style="fill:#902226;fill-opacity:1;fill-rule:nonzero;stroke:none"
         d="m 2945.78,1560.25 8.76,1286.4 c 1.5,221.41 85.83,370.17 209.81,370.17 26.66,0 53.92,-7.24 81.02,-21.51 145.7,-76.72 259.83,-333.33 259.83,-584.17 V 1364.09 l -559.42,196.16" /><path
         id="path20"
         style="fill:#341513;fill-opacity:1;fill-rule:nonzero;stroke:none"
         d="m 3164.35,3246.82 c -141.81,-0.01 -238.18,-160.74 -239.81,-399.96 l -8.62,-1264.98 -0.29,-42.85 40.44,-14.18 499.28,-175.06 79.85,-28 v 84.62 1204.73 c 0,261 -121.17,529.26 -275.86,610.72 -31.44,16.56 -63.41,24.96 -94.99,24.96 m 0,-60 c 21.34,0 43.83,-5.83 67.04,-18.05 134.65,-70.91 243.81,-320.56 243.81,-557.63 V 1406.41 l -499.29,175.06 8.63,1264.98 c 1.4,206.01 77.34,340.37 179.81,340.37" /><path
         id="path22"
         style="fill:#e82b37;fill-opacity:1;fill-rule:nonzero;stroke:none"
         d="m 272.5,2611.14 c 0,250.84 114.133,507.45 259.828,584.17 44.172,23.26 92.762,35.56 140.524,35.56 113.75,0 235.796,-72.51 237.187,-276.03 l -0.047,-1.92 L 830.59,1559.78 272.5,1364.09 v 1247.05" /><path
         id="path24"
         style="fill:#341513;fill-opacity:1;fill-rule:nonzero;stroke:none"
         d="m 672.852,3260.87 c -52.614,0 -106.039,-13.49 -154.497,-39.01 C 363.668,3140.4 242.5,2872.14 242.5,2611.14 v -1204.73 -84.62 l 79.848,28 499.281,175.06 37.769,13.24 2.282,39.96 78.261,1373.17 0.114,1.91 -0.02,1.91 c -1.539,225.73 -144.894,305.83 -267.183,305.83 m 0,-60 c 106.039,0 205.98,-69.46 207.187,-246.24 L 801.777,1581.47 302.5,1406.41 v 1204.73 c 0,237.07 109.16,486.72 243.809,557.63 39.019,20.55 83.277,32.1 126.543,32.1" /><path
         id="path26"
         style="fill:#902226;fill-opacity:1;fill-rule:nonzero;stroke:none"
         d="m 376.992,2611.14 c 0,250.84 114.129,507.45 259.828,584.17 27.102,14.27 54.356,21.51 81.024,21.51 123.996,0 208.316,-148.76 209.812,-370.17 l 8.762,-1286.4 -559.426,-196.16 v 1247.05" /><path
         id="path28"
         style="fill:#341513;fill-opacity:1;fill-rule:nonzero;stroke:none"
         d="m 717.836,3246.82 c -31.582,0 -63.539,-8.4 -94.988,-24.96 C 468.16,3140.4 346.992,2872.14 346.992,2611.14 v -1204.73 -84.62 l 79.848,28 499.285,175.06 40.434,14.18 -0.293,42.85 -8.614,1264.98 c -1.613,239.23 -97.988,399.96 -239.816,399.96 m 0,-60 c 102.48,0 178.43,-134.36 179.82,-340.37 L 906.27,1581.47 406.992,1406.41 v 1204.73 c 0,237.07 109.16,486.72 243.809,557.63 23.207,12.22 45.699,18.05 67.035,18.05" /><path
         id="path30"
         style="fill:#262933;fill-opacity:1;fill-rule:nonzero;stroke:none"
         d="m 552.988,30 c -46.031,0 -83.476,37.4414 -83.476,83.461 v 68.75 c 0,46.031 37.445,83.48 83.476,83.48 h 466.372 c 46.02,0 83.45,-37.449 83.45,-83.48 v -68.75 C 1102.81,67.4414 1065.38,30 1019.36,30 H 552.988" /><path
         id="path32"
         style="fill:#341513;fill-opacity:1;fill-rule:nonzero;stroke:none"
         d="M 1019.36,295.691 H 552.988 c -62.574,0 -113.476,-50.91 -113.476,-113.48 v -68.75 C 439.512,50.8984 490.414,0 552.988,0 h 466.372 c 62.56,0 113.45,50.8984 113.45,113.461 v 68.75 c 0,62.57 -50.89,113.48 -113.45,113.48 z m 0,-60 c 29.53,0 53.45,-23.949 53.45,-53.48 v -68.75 C 1072.81,83.9297 1048.89,60 1019.36,60 H 552.988 c -29.531,0 -53.476,23.9297 -53.476,53.461 v 68.75 c 0,29.531 23.945,53.48 53.476,53.48 h 466.372" /><path
         id="path34"
         style="fill:#262933;fill-opacity:1;fill-rule:nonzero;stroke:none"
         d="m 2847.95,30 c -46.02,0 -83.45,37.4414 -83.45,83.461 v 68.75 c 0,46.031 37.43,83.48 83.45,83.48 h 466.37 c 46.03,0 83.47,-37.449 83.47,-83.48 v -68.75 C 3397.79,67.4414 3360.35,30 3314.32,30 h -466.37" /><path
         id="path36"
         style="fill:#341513;fill-opacity:1;fill-rule:nonzero;stroke:none"
         d="m 3314.32,295.691 h -466.37 c -62.56,0 -113.45,-50.91 -113.45,-113.48 v -68.75 C 2734.5,50.8984 2785.39,0 2847.95,0 h 466.37 c 62.57,0 113.47,50.8984 113.47,113.461 v 68.75 c 0,62.57 -50.9,113.48 -113.47,113.48 z m 0,-60 c 29.53,0 53.47,-23.949 53.47,-53.48 v -68.75 C 3367.79,83.9297 3343.85,60 3314.32,60 h -466.37 c -29.54,0 -53.45,23.9297 -53.45,53.461 v 68.75 c 0,29.531 23.91,53.48 53.45,53.48 h 466.37" /><path
         id="path38"
         style="fill:#e82b37;fill-opacity:1;fill-rule:nonzero;stroke:none"
         d="m 441.289,143.629 c -168.168,0 -304.98,136.82 -304.98,304.98 V 1701.68 H 3704.62 V 448.609 c 0,-168.16 -136.8,-304.98 -304.97,-304.98 H 441.289" /><path
         id="path40"
         style="fill:#341513;fill-opacity:1;fill-rule:nonzero;stroke:none"
         d="M 3734.62,1731.68 H 106.309 V 448.609 c 0,-184.699 150.269,-334.98 334.98,-334.98 H 3399.65 c 184.71,0 334.97,150.281 334.97,334.98 v 1223.071 60 m -60,-60 V 448.609 c 0,-151.859 -123.12,-274.98 -274.97,-274.98 H 441.289 c -151.875,0 -274.98,123.121 -274.98,274.98 V 1671.68 H 3674.62" /><path
         id="path42"
         style="fill:#d62934;fill-opacity:1;fill-rule:nonzero;stroke:none"
         d="m 166.309,1320.32 h 3508.31 V 1595.3 H 166.309 Z" /><path
         id="path44"
         style="fill:#bd2831;fill-opacity:1;fill-rule:nonzero;stroke:none"
         d="m 317.695,202.992 c 25.508,-12.851 53.243,-21.89 82.52,-26.293 V 1671.68 h -82.52 V 202.992" /><path
         id="path46"
         style="fill:#bd2831;fill-opacity:1;fill-rule:nonzero;stroke:none"
         d="m 541.113,173.629 h 82.52 V 1671.68 h -82.52 V 173.629" /><path
         id="path48"
         style="fill:#bd2831;fill-opacity:1;fill-rule:nonzero;stroke:none"
         d="m 847.031,1671.68 h -82.5 V 173.629 h 82.5 V 1671.68" /><path
         id="path50"
         style="fill:#bd2831;fill-opacity:1;fill-rule:nonzero;stroke:none"
         d="M 1070.45,1671.68 H 987.93 V 173.629 h 82.52 V 1671.68" /><path
         id="path52"
         style="fill:#bd2831;fill-opacity:1;fill-rule:nonzero;stroke:none"
         d="m 1293.87,1671.68 h -82.52 V 173.629 h 82.52 V 1671.68" /><path
         id="path54"
         style="fill:#bd2831;fill-opacity:1;fill-rule:nonzero;stroke:none"
         d="m 1517.27,1671.68 h -82.52 V 173.629 h 82.52 V 1671.68" /><path
         id="path56"
         style="fill:#bd2831;fill-opacity:1;fill-rule:nonzero;stroke:none"
         d="m 1740.68,1671.68 h -82.52 V 173.629 h 82.52 V 1671.68" /><path
         id="path58"
         style="fill:#bd2831;fill-opacity:1;fill-rule:nonzero;stroke:none"
         d="m 1964.09,1671.68 h -82.51 V 173.629 h 82.51 V 1671.68" /><path
         id="path60"
         style="fill:#bd2831;fill-opacity:1;fill-rule:nonzero;stroke:none"
         d="m 2187.5,1671.68 h -82.51 V 173.629 h 82.51 V 1671.68" /><path
         id="path62"
         style="fill:#bd2831;fill-opacity:1;fill-rule:nonzero;stroke:none"
         d="M 2410.91,1671.68 H 2328.4 V 173.629 h 82.51 V 1671.68" /><path
         id="path64"
         style="fill:#bd2831;fill-opacity:1;fill-rule:nonzero;stroke:none"
         d="m 2634.32,1671.68 h -82.53 V 173.629 h 82.53 V 1671.68" /><path
         id="path66"
         style="fill:#bd2831;fill-opacity:1;fill-rule:nonzero;stroke:none"
         d="m 2857.74,1671.68 h -82.53 V 173.629 h 82.53 V 1671.68" /><path
         id="path68"
         style="fill:#bd2831;fill-opacity:1;fill-rule:nonzero;stroke:none"
         d="m 3081.13,1671.68 h -82.5 V 173.629 h 82.5 V 1671.68" /><path
         id="path70"
         style="fill:#bd2831;fill-opacity:1;fill-rule:nonzero;stroke:none"
         d="m 3304.55,1671.68 h -82.51 V 173.629 h 82.51 V 1671.68" /><path
         id="path72"
         style="fill:#bd2831;fill-opacity:1;fill-rule:nonzero;stroke:none"
         d="m 3445.45,177.5 c 29.34,4.922 57.11,14.469 82.52,27.91 v 1466.27 h -82.52 V 177.5" /><path
         id="path74"
         style="fill:#bd2831;fill-opacity:1;fill-rule:nonzero;stroke:none"
         d="m 317.695,202.992 c 25.508,-12.851 53.243,-21.89 82.52,-26.293 V 1671.68 h -82.52 V 202.992" /><path
         id="path76"
         style="fill:#bd2831;fill-opacity:1;fill-rule:nonzero;stroke:none"
         d="m 541.113,173.629 h 82.52 V 1671.68 h -82.52 V 173.629" /><path
         id="path78"
         style="fill:#bd2831;fill-opacity:1;fill-rule:nonzero;stroke:none"
         d="m 847.031,1671.68 h -82.5 V 173.629 h 82.5 V 1671.68" /><path
         id="path80"
         style="fill:#bd2831;fill-opacity:1;fill-rule:nonzero;stroke:none"
         d="M 1070.45,1671.68 H 987.93 V 173.629 h 82.52 V 1671.68" /><path
         id="path82"
         style="fill:#bd2831;fill-opacity:1;fill-rule:nonzero;stroke:none"
         d="m 1293.87,1671.68 h -82.52 V 173.629 h 82.52 V 1671.68" /><path
         id="path84"
         style="fill:#bd2831;fill-opacity:1;fill-rule:nonzero;stroke:none"
         d="m 1517.27,1671.68 h -82.52 V 173.629 h 82.52 V 1671.68" /><path
         id="path86"
         style="fill:#bd2831;fill-opacity:1;fill-rule:nonzero;stroke:none"
         d="m 1740.68,1671.68 h -82.52 V 173.629 h 82.52 V 1671.68" /><path
         id="path88"
         style="fill:#bd2831;fill-opacity:1;fill-rule:nonzero;stroke:none"
         d="m 1964.09,1671.68 h -82.51 V 173.629 h 82.51 V 1671.68" /><path
         id="path90"
         style="fill:#bd2831;fill-opacity:1;fill-rule:nonzero;stroke:none"
         d="m 2187.5,1671.68 h -82.51 V 173.629 h 82.51 V 1671.68" /><path
         id="path92"
         style="fill:#bd2831;fill-opacity:1;fill-rule:nonzero;stroke:none"
         d="M 2410.91,1671.68 H 2328.4 V 173.629 h 82.51 V 1671.68" /><path
         id="path94"
         style="fill:#bd2831;fill-opacity:1;fill-rule:nonzero;stroke:none"
         d="m 2634.32,1671.68 h -82.53 V 173.629 h 82.53 V 1671.68" /><path
         id="path96"
         style="fill:#bd2831;fill-opacity:1;fill-rule:nonzero;stroke:none"
         d="m 2857.74,1671.68 h -82.53 V 173.629 h 82.53 V 1671.68" /><path
         id="path98"
         style="fill:#bd2831;fill-opacity:1;fill-rule:nonzero;stroke:none"
         d="m 3081.13,1671.68 h -82.5 V 173.629 h 82.5 V 1671.68" /><path
         id="path100"
         style="fill:#bd2831;fill-opacity:1;fill-rule:nonzero;stroke:none"
         d="m 3304.55,1671.68 h -82.51 V 173.629 h 82.51 V 1671.68" /><path
         id="path102"
         style="fill:#bd2831;fill-opacity:1;fill-rule:nonzero;stroke:none"
         d="m 3445.45,177.5 c 29.34,4.922 57.11,14.469 82.52,27.91 v 1466.27 h -82.52 V 177.5" /><path
         id="path104"
         style="fill:#e13650;fill-opacity:1;fill-rule:nonzero;stroke:none"
         d="M 113.457,1427.81 C 67.4375,1427.81 30,1465.26 30,1511.29 v 106.93 c 0,46.02 37.4375,83.46 83.457,83.46 H 3768.74 c 46.01,0 83.45,-37.44 83.45,-83.46 v -106.93 c 0,-46.03 -37.44,-83.48 -83.45,-83.48 H 113.457" /><path
         id="path106"
         style="fill:#341513;fill-opacity:1;fill-rule:nonzero;stroke:none"
         d="M 3768.74,1731.68 H 113.457 C 50.8945,1731.68 0,1680.78 0,1618.22 v -106.93 c 0,-62.57 50.8945,-113.48 113.457,-113.48 H 3768.74 c 62.55,0 113.45,50.91 113.45,113.48 v 106.93 c 0,62.56 -50.9,113.46 -113.45,113.46 z m 0,-60 c 29.53,0 53.45,-23.92 53.45,-53.46 v -106.93 c 0,-29.53 -23.92,-53.48 -53.45,-53.48 H 113.457 C 83.9258,1457.81 60,1481.76 60,1511.29 v 106.93 c 0,29.54 23.9258,53.46 53.457,53.46 H 3768.74" /><path
         id="path108"
         style="fill:#e82b37;fill-opacity:1;fill-rule:nonzero;stroke:none"
         d="m 700.02,2576.64 c -58.661,0 -106.387,47.73 -106.387,106.39 v 64.92 c 0,58.66 47.726,106.38 106.387,106.38 h 2486.9 c 58.66,0 106.38,-47.72 106.38,-106.38 v -64.92 c 0,-58.66 -47.72,-106.39 -106.38,-106.39 H 700.02" /><path
         id="path110"
         style="fill:#341513;fill-opacity:1;fill-rule:nonzero;stroke:none"
         d="M 3186.92,2884.33 H 700.02 c -75.204,0 -136.387,-61.18 -136.387,-136.38 v -64.92 c 0,-75.21 61.183,-136.39 136.387,-136.39 h 2486.9 c 75.2,0 136.38,61.18 136.38,136.39 v 64.92 c 0,75.2 -61.18,136.38 -136.38,136.38 z m 0,-60 c 42.19,0 76.38,-34.19 76.38,-76.38 v -64.92 c 0,-42.19 -34.19,-76.39 -76.38,-76.39 H 700.02 c -42.188,0 -76.387,34.2 -76.387,76.39 v 64.92 c 0,42.19 34.199,76.38 76.387,76.38 h 2486.9" /><path
         id="path112"
         style="fill:#bd2831;fill-opacity:1;fill-rule:nonzero;stroke:none"
         d="m 623.633,2715.49 v -32.46 c 0,-42.19 34.199,-76.39 76.387,-76.39 h 2486.9 c 42.19,0 76.38,34.2 76.38,76.39 v 32.46 H 623.633" /><path
         id="path114"
         style="fill:#ffffff;fill-opacity:1;fill-rule:nonzero;stroke:none"
         d="m 1887.57,534.641 c -4.29,0 -106.11,0.871 -181.93,76.789 -52.34,52.41 -78.82,127 -78.7,221.699 0.01,6.781 4.56,12.711 11.12,14.461 3.91,1.051 97.64,25.719 243.48,25.719 85.51,0 171.19,-8.579 254.64,-25.508 7.26,-1.469 12.36,-8.02 12,-15.43 -0.14,-2.973 -17.36,-297.73 -260.61,-297.73" /><path
         id="path116"
         style="fill:#341513;fill-opacity:1;fill-rule:nonzero;stroke:none"
         d="m 1881.56,888.309 v -30 30 h -0.02 c -147.79,-0.008 -243.37,-25.149 -247.37,-26.227 -13.1,-3.5 -22.21,-15.371 -22.23,-28.934 -0.13,-98.816 27.83,-176.988 83.09,-232.316 80.17,-80.262 187.99,-81.191 192.54,-81.191 107.37,0 189.33,55.07 237.01,159.25 34.44,75.25 38.43,149.621 38.58,152.75 0.73,14.808 -9.47,27.918 -23.99,30.871 -84.45,17.117 -171.11,25.797 -257.61,25.797 z m -0.02,-30 c 72.78,0 158.43,-6.297 251.66,-25.2 0,0 -13.86,-283.468 -245.63,-283.468 0,0 -245.99,0 -245.63,283.468 0,0 94.05,25.192 239.6,25.2" /><path
         id="path118"
         style="fill:#ffffff;fill-opacity:1;fill-rule:nonzero;stroke:none"
         d="m 1661.56,709.289 c 0,0 191.6,53.633 440.03,0" /><path
         id="path120"
         style="fill:#341513;fill-opacity:1;fill-rule:nonzero;stroke:none"
         d="m 1665.6,694.84 0.16,0.051 c 4.17,1.14 86.8,23.238 211.34,23.238 64.27,0 139.71,-5.879 221.32,-23.5 8.1,-1.75 16.08,3.402 17.83,11.492 1.75,8.098 -3.4,16.078 -11.5,17.828 -84,18.141 -161.55,24.18 -227.65,24.18 -132.21,-0.008 -218.63,-24.141 -219.59,-24.399 -7.97,-2.23 -12.63,-10.511 -10.4,-18.48 2.24,-7.98 10.51,-12.641 18.49,-10.41" /><path
         id="path122"
         style="fill:#f4687d;fill-opacity:1;fill-rule:nonzero;stroke:none"
         d="m 2558.79,782.5 c 0,-81.328 -65.97,-147.238 -147.25,-147.238 -81.26,0 -147.15,65.91 -147.15,147.238 0,81.281 65.89,147.191 147.15,147.191 81.28,0 147.25,-65.91 147.25,-147.191" /><path
         id="path124"
         style="fill:#341513;fill-opacity:1;fill-rule:nonzero;stroke:none"
         d="m 2582.47,1031.11 c 0,-96.77 -78.45,-175.2 -175.21,-175.2 -96.84,0 -175.23,78.43 -175.23,175.2 0,96.76 78.39,175.21 175.23,175.21 96.76,0 175.21,-78.45 175.21,-175.21" /><path
         id="path126"
         style="fill:#ffffff;fill-opacity:1;fill-rule:nonzero;stroke:none"
         d="m 2407.26,1089.5 c 0,-32.25 -26.21,-58.39 -58.48,-58.39 -32.18,0 -58.4,26.14 -58.4,58.39 0,32.28 26.22,58.42 58.4,58.42 32.27,0 58.48,-26.14 58.48,-58.42" /><path
         id="path128"
         style="fill:#e92d3b;fill-opacity:1;fill-rule:nonzero;stroke:none"
         d="M 2387.42,821.82 V 771.98" /><path
         id="path130"
         style="fill:#341513;fill-opacity:1;fill-rule:nonzero;stroke:none"
         d="m 2372.42,821.82 v -49.84 c 0,-8.281 6.71,-15 15,-15 8.28,0 15,6.719 15,15 v 49.84 c 0,8.282 -6.72,15 -15,15 -8.29,0 -15,-6.718 -15,-15" /><path
         id="path132"
         style="fill:#e92d3b;fill-opacity:1;fill-rule:nonzero;stroke:none"
         d="M 2427.04,821.82 V 771.98" /><path
         id="path134"
         style="fill:#341513;fill-opacity:1;fill-rule:nonzero;stroke:none"
         d="m 2412.04,821.82 v -49.84 c 0,-8.281 6.71,-15 15,-15 8.28,0 15,6.719 15,15 v 49.84 c 0,8.282 -6.72,15 -15,15 -8.29,0 -15,-6.718 -15,-15" /><path
         id="path136"
         style="fill:#f4687d;fill-opacity:1;fill-rule:nonzero;stroke:none"
         d="m 1507.47,782.5 c 0,-81.328 -65.97,-147.238 -147.23,-147.238 -81.3,0 -147.17,65.91 -147.17,147.238 0,81.281 65.87,147.191 147.17,147.191 81.26,0 147.23,-65.91 147.23,-147.191" /><path
         id="path138"
         style="fill:#341513;fill-opacity:1;fill-rule:nonzero;stroke:none"
         d="m 1531.19,1031.11 c 0,-96.77 -78.45,-175.2 -175.23,-175.2 -96.81,0 -175.25,78.43 -175.25,175.2 0,96.76 78.44,175.21 175.25,175.21 96.78,0 175.23,-78.45 175.23,-175.21" /><path
         id="path140"
         style="fill:#ffffff;fill-opacity:1;fill-rule:nonzero;stroke:none"
         d="m 1355.96,1089.5 c 0,-32.25 -26.23,-58.39 -58.44,-58.39 -32.23,0 -58.42,26.14 -58.42,58.39 0,32.28 26.19,58.42 58.42,58.42 32.21,0 58.44,-26.14 58.44,-58.42" /><path
         id="path142"
         style="fill:#e92d3b;fill-opacity:1;fill-rule:nonzero;stroke:none"
         d="M 1336.1,821.82 V 771.98" /><path
         id="path144"
         style="fill:#341513;fill-opacity:1;fill-rule:nonzero;stroke:none"
         d="m 1321.1,821.82 v -49.84 c 0,-8.281 6.71,-15 15,-15 8.28,0 15,6.719 15,15 v 49.84 c 0,8.282 -6.72,15 -15,15 -8.29,0 -15,-6.718 -15,-15" /><path
         id="path146"
         style="fill:#e92d3b;fill-opacity:1;fill-rule:nonzero;stroke:none"
         d="M 1375.72,821.82 V 771.98" /><path
         id="path148"
         style="fill:#341513;fill-opacity:1;fill-rule:nonzero;stroke:none"
         d="m 1360.72,821.82 v -49.84 c 0,-8.281 6.72,-15 15,-15 8.29,0 15,6.719 15,15 v 49.84 c 0,8.282 -6.71,15 -15,15 -8.28,0 -15,-6.718 -15,-15" /></g></g></svg>